<svg width="128" height="128" viewBox="0 0 128 128" fill="none" xmlns="http://www.w3.org/2000/svg">
  <rect x="8" y="8" width="112" height="112" rx="26" fill="#172033"/>
  <path d="M26 82C34 50 58 30 101 27V101C74 112 48 105 26 82Z" fill="#2368DB"/>
  <path d="M27 96C50 75 75 68 101 72V101C75 112 49 107 27 96Z" fill="#52D1B8"/>
  <circle cx="63" cy="58" r="30" fill="white"/>
  <path d="M55 43L79 58L55 73V43Z" fill="#2368DB"/>
  <path d="M35 90H93" stroke="white" stroke-width="9" stroke-linecap="round"/>
  <path d="M45 90H83" stroke="#172033" stroke-width="4" stroke-linecap="round" opacity="0.72"/>
  <path d="M38 35C44 26 53 21 64 21C75 21 84 26 90 35" stroke="#52D1B8" stroke-width="7" stroke-linecap="round"/>
  <path d="M94 37L99 24L104 38L94 37Z" fill="#52D1B8"/>
</svg>